<?xml version="1.0" encoding="utf-8"?>
<!-- Generator: Adobe Illustrator 19.2.1, SVG Export Plug-In . SVG Version: 6.00 Build 0)  -->
<svg version="1.1" xmlns="http://www.w3.org/2000/svg" xmlns:xlink="http://www.w3.org/1999/xlink" x="0px" y="0px"
	 viewBox="0 0 440 134.5" style="enable-background:new 0 0 440 134.5;" xml:space="preserve">
<style type="text/css">
	.st0{display:none;}
	.st1{display:inline;}
	.st2{fill:#EC008C;}
	.st3{fill:#FFFFFF;}
</style>
<g id="Layer_2" class="st0">
	<g class="st1">
		<rect x="-33" y="-32.5" width="507" height="200"/>
		<path class="st2" d="M81.2-4.9c-0.7,2.1-2.1,5.8-3.2,7.7c-1.5,0.4-6.2,1.4-10.1,1.4c-14.6,0-20.9-9.2-20.9-17.8
			c0-11.2,9-18.5,22.1-18.5c4.7,0,8.6,1.1,10.1,1.3c0.5,3,0.7,5.1,1.1,7.4l-0.8,0.2c-1.5-5.6-5.6-7.8-11.7-7.8
			c-10.1,0-15.2,8-15.2,16.3c0,10.2,5.9,17.7,15.5,17.7c6.4,0,9.9-3.6,12.4-8.2L81.2-4.9z"/>
		<path class="st2" d="M138.2,158.1c-0.7,2.1-2.1,5.8-3.2,7.7c-1.5,0.4-6.2,1.4-10.1,1.4c-14.6,0-20.9-9.2-20.9-17.8
			c0-11.2,9-18.5,22.1-18.5c4.7,0,8.6,1.1,10.1,1.3c0.5,3,0.7,5.1,1.1,7.4l-0.8,0.2c-1.5-5.6-5.6-7.8-11.7-7.8
			c-10.1,0-15.2,8-15.2,16.3c0,10.2,5.9,17.7,15.5,17.7c6.4,0,9.9-3.6,12.4-8.2L138.2,158.1z"/>
		<path class="st2" d="M-24.1,81.8c-2.1-0.8-5.7-2.4-7.6-3.6c-0.3-1.5-1.1-6.2-0.9-10.1c0.7-14.6,10.1-20.4,18.8-20
			c11.2,0.5,18.1,9.8,17.5,22.9c-0.2,4.7-1.5,8.6-1.8,10c-3,0.3-5.1,0.5-7.4,0.7l-0.2-0.8c5.7-1.2,8-5.3,8.3-11.4
			C3,59.4-4.7,54-13.1,53.6c-10.2-0.5-18,5-18.4,14.7c-0.3,6.4,3.1,10.1,7.7,12.8L-24.1,81.8z"/>
		<path class="st2" d="M445.9,85.8c-2.1-0.8-5.7-2.4-7.6-3.6c-0.3-1.5-1.1-6.2-0.9-10.1c0.7-14.6,10.1-20.4,18.8-20
			c11.2,0.5,18.1,9.8,17.5,22.9c-0.2,4.7-1.5,8.6-1.8,10c-3,0.3-5.1,0.5-7.4,0.7l-0.2-0.8c5.7-1.2,8-5.3,8.3-11.4
			c0.5-10.1-7.3-15.6-15.6-16c-10.2-0.5-18,5-18.4,14.7c-0.3,6.4,3.1,10.1,7.7,12.8L445.9,85.8z"/>
	</g>
</g>
<g id="Layer_1">
	<g>
		<g>
			<path class="st3" d="M108.7,74.6c-0.7,2.1-2.1,5.8-3.2,7.7c-1.5,0.4-6.2,1.4-10.1,1.4c-14.6,0-20.9-9.2-20.9-17.8
				c0-11.2,9-18.5,22.1-18.5c4.7,0,8.6,1.1,10.1,1.3c0.5,3,0.7,5.1,1.1,7.4l-0.8,0.2c-1.5-5.6-5.6-7.8-11.7-7.8
				c-10.1,0-15.2,8-15.2,16.3c0,10.2,5.9,17.7,15.5,17.7c6.4,0,9.9-3.6,12.4-8.2L108.7,74.6z"/>
			<path class="st3" d="M135.3,71.1c0,8.3-6.5,12.5-12.3,12.5c-7.8,0-12.4-5.7-12.4-11.7c0-8.6,7.3-12.6,12.5-12.6
				C130.2,59.4,135.3,64.7,135.3,71.1z M115.6,70.2c0,7.1,3,12.4,8,12.4c3.7,0,6.6-2.6,6.6-10.4c0-6.1-2.6-11.7-7.9-11.7
				C118.4,60.5,115.6,64.3,115.6,70.2z"/>
			<path class="st3" d="M135.4,83v-0.6c3.5-0.3,3.9-0.7,3.9-4.4v-27c0-3.8-1.1-4-4.7-4.3v-0.5c2.6-0.4,7.1-1.2,8.8-1.9V78
				c0,3.7,0.4,4.1,3.9,4.4V83H135.4z"/>
			<path class="st3" d="M174,81.8c-1.2,0.1-2.7,0.5-4.1,0.9c-1.5,0.3-2.8,0.8-3.7,1l-0.3-0.3v-4c-1.2,1-2.6,2-4.2,3
				c-1.7,1-3,1.4-4.3,1.4c-3.8,0-6.8-2.1-6.8-7.4V64.8c0-2.6-1.3-3-2.9-3.3l-1.3-0.3v-0.5c1-0.1,3.3-0.2,4.7-0.3
				c1.4-0.2,2.8-0.4,3.9-0.6c-0.1,1.2-0.2,3-0.2,7.5v7.5c0,4.8,2.3,6.2,4.9,6.2c2,0,4.5-0.9,6.3-2.7V64.8c0-2.6-1.4-3-3.3-3.3
				l-1.8-0.3v-0.5c1.6-0.1,4-0.2,5.5-0.3c1.6-0.2,2.8-0.4,3.8-0.6v18.2c0,2.6,0.5,3,2.6,3.2l1.4,0.1V81.8z"/>
			<path class="st3" d="M205.4,83v-0.6c3.5-0.3,4.1-0.6,4.1-4.8v-9.1c0-3.9-1.2-6.4-5.2-6.4c-1.9,0-3.9,0.9-6.1,2.5
				c0.2,0.6,0.2,1.2,0.2,2.4v11c0,3.7,0.4,4.1,3.5,4.4V83h-11.7v-0.6c3.6-0.3,4-0.7,4-4.4v-9.6c0-4-1.3-6.3-5.3-6.3
				c-2.1,0-4.2,1.2-5.9,2.5V78c0,3.7,0.4,4.1,3.4,4.4V83h-11.8v-0.6c3.6-0.3,4.2-0.7,4.2-4.4V66.3c0-3.4-1.2-3.7-4.2-4.3v-0.5
				c2.1-0.4,5.7-1.1,8.4-2.2v4.2c1.2-0.8,2.3-1.6,3.9-2.4c1.7-1,3.1-1.6,4.7-1.6c2.7,0,5.1,1.6,6.2,4.3c1.6-1.1,3.4-2.1,4.8-2.9
				c1.4-0.8,2.7-1.4,4.1-1.4c4.3,0,6.8,2.8,6.8,7.8V78c0,3.9,0.3,4,3.5,4.4V83H205.4z"/>
			<path class="st3" d="M228.4,59.9c0.8-0.3,1.5-0.5,2.1-0.5c6,0,11,4.9,11,11.1c0,7.6-6.5,13.1-14,13.1c-2.1,0-5.3-0.4-8.3-1.8v-31
				c0-3.5-1.1-3.8-4.7-4.2v-0.5c2.9-0.3,6.9-1.2,8.8-1.9v17.6L228.4,59.9z M223.4,77.1c0,0.8,0.1,1.3,0.3,1.9
				c0.5,1.3,2.2,3.3,5.2,3.3c5.3,0,7.8-4.5,7.8-10.5c0-6-3.7-9.9-8.9-9.9c-1.7,0-3.4,0.4-4.4,0.9V77.1z"/>
			<path class="st3" d="M242.7,83v-0.6c3.4-0.3,3.9-0.7,3.9-4.4V66.2c0-3.3-1.2-3.6-4.3-4.2v-0.6c2.3-0.4,5.9-1,8.4-2.1V78
				c0,3.7,0.4,4.1,3.9,4.4V83H242.7z M245.8,52.1c0-1.5,1.3-2.6,2.7-2.6c1.5,0,2.6,1,2.6,2.6c0,1.4-1.2,2.6-2.7,2.6
				C247,54.7,245.8,53.5,245.8,52.1z"/>
			<path class="st3" d="M273.2,83.7c-1,0-2.2-0.4-2.8-1.1c-0.6-0.6-1-1.5-1.3-2.5c-2,1.4-5.2,3.5-6.4,3.5c-4.1,0-6.7-3.2-6.7-6.1
				c0-2.5,1.4-4,4.4-4.9c3.2-1,7.2-2.4,8.7-3.4v-1.3c0-4.2-1.9-6.4-5-6.4c-1,0-2,0.4-2.6,1c-0.7,0.7-1.3,1.8-1.7,3.6
				c-0.2,0.9-0.6,1.2-1.4,1.2c-0.9,0-2.3-0.9-2.3-2c0-0.6,0.6-1.2,1.7-1.9c1.7-1.1,5.6-3.2,8.5-3.8c1.6,0,3.1,0.5,4.3,1.3
				c2,1.6,2.6,3.8,2.6,6.7v10.3c0,2.2,1,3.1,2.1,3.1c0.8,0,1.4-0.2,1.9-0.6l0.3,0.8L273.2,83.7z M269,70.2c-1.1,0.6-3.8,1.7-5.1,2.3
				c-2.1,1-3.4,2-3.4,4c0,2.8,2.3,4.4,4.2,4.4c1.3,0,3.1-0.7,4.3-1.9V70.2z"/>
			<path class="st3" d="M319.3,74.6c-0.7,2.1-2.1,5.8-3.2,7.7c-1.5,0.4-6.1,1.4-10,1.4c-14.4,0-20.7-9.2-20.7-17.8
				c0-11.2,8.9-18.5,21.9-18.5c4.6,0,8.5,1.1,10,1.3c0.5,3,0.7,5.1,1,7.4l-0.8,0.2c-1.5-5.6-5.6-7.8-11.6-7.8
				c-10,0-15.1,8-15.1,16.3c0,10.2,5.8,17.7,15.4,17.7c6.3,0,9.8-3.6,12.3-8.2L319.3,74.6z"/>
			<path class="st3" d="M345.1,71.1c0,8.3-6.4,12.5-12.1,12.5c-7.7,0-12.2-5.7-12.2-11.7c0-8.6,7.2-12.6,12.3-12.6
				C340.1,59.4,345.1,64.7,345.1,71.1z M325.7,70.2c0,7.1,3,12.4,7.9,12.4c3.7,0,6.5-2.6,6.5-10.4c0-6.1-2.6-11.7-7.8-11.7
				C328.5,60.5,325.7,64.3,325.7,70.2z"/>
			<path class="st3" d="M345.2,83v-0.6c3.5-0.3,3.9-0.7,3.9-4.4v-27c0-3.8-1.1-4-4.7-4.3v-0.5c2.6-0.4,7.1-1.2,8.8-1.9V78
				c0,3.7,0.4,4.1,3.9,4.4V83H345.2z"/>
			<path class="st3" d="M359.1,83v-0.6c3.5-0.3,3.9-0.7,3.9-4.4v-27c0-3.8-1.1-4-4.7-4.3v-0.5c2.6-0.4,7.1-1.2,8.8-1.9V78
				c0,3.7,0.4,4.1,3.9,4.4V83H359.1z"/>
			<path class="st3" d="M391.6,78.3c-3.3,4.3-7.4,5.4-8.9,5.4c-7,0-11-5.3-11-11.2c0-3.6,1.3-6.7,3.7-9.1c2.3-2.3,5.4-3.9,8.2-3.9
				h0.1c4.6,0,8.1,3.9,8.1,7.4c0,0.9-0.3,1.1-1.2,1.3c-0.9,0.2-7.7,0.6-14.7,0.9c-0.1,8.4,4.8,11.4,9,11.4c2,0,4.1-0.7,6.3-2.6
				L391.6,78.3z M376.1,67.5c3.4,0,6.6,0,10-0.1c0.8,0,1.1-0.3,1.1-0.9c0.1-2.8-1.6-5.7-5.2-5.7C379.5,60.8,376.8,63.2,376.1,67.5z"
				/>
			<path class="st3" d="M436.6,78.3c-3.3,4.3-7.4,5.4-8.9,5.4c-7,0-11-5.3-11-11.2c0-3.6,1.3-6.7,3.7-9.1c2.3-2.3,5.4-3.9,8.2-3.9
				h0.1c4.6,0,8.1,3.9,8.1,7.4c0,0.9-0.3,1.1-1.2,1.3c-0.9,0.2-7.7,0.6-14.7,0.9c-0.1,8.4,4.8,11.4,9,11.4c2,0,4.1-0.7,6.3-2.6
				L436.6,78.3z M421.1,67.5c3.4,0,6.6,0,10-0.1c0.8,0,1.1-0.3,1.1-0.9c0.1-2.8-1.6-5.7-5.2-5.7C424.5,60.8,421.8,63.2,421.1,67.5z"
				/>
			<path class="st3" d="M410,80.1c-2,0-5.5,0.5-7.2,0.5c-2.5,0-3.7-1-3.7-2.2c0-0.8,1-1.9,1.6-2.3c0.9,0.2,1.9,0.3,3,0.3
				c4.2,0,9.5-2.7,9.5-8.7c0-1.8-0.6-3.7-1.9-4.9l3.4-0.3c0.9-0.5,2-2.2,2.6-3l-0.6-0.2c-1.4,0.6-3.8,1.6-7.2,1.7
				c-1.7-0.9-3.5-1.5-5.3-1.5h-0.1c-4.2,0-9.8,2.8-9.8,9c0,3.5,2.4,6.2,5.3,7.4c-0.8,1-2.9,2.3-5.2,3c-0.1,0.5,0.1,1.4,0.6,2.1
				c0.7,1.2,2.6,2.5,4.8,3c2,0.5,3.5,0.2,5.2,0.1c2.9-0.1,5.1-0.3,7,0.5c1.7,0.6,2.8,2.4,2.8,4.4c0,3.6-3.3,6.8-10,6.9
				c-4.2,0.1-7.7-2.7-7.5-5.1c0.1-1.5,1.5-2.6,3-3.4c0,0,0.1-0.1,0.1-0.1c-0.5-0.1-0.9-0.2-1.3-0.3c-1.6,0.8-3.5,1.9-4.5,2.6
				c-0.8,0.5-1.4,1.1-1.4,2.1c0,2.6,4.2,6.4,10.4,6.2c8.2-0.3,14.9-6,14.6-11.2C417.9,81.5,413.2,80.1,410,80.1z M398.8,67.3
				c0-4.6,2.2-6.9,4.6-6.9c3.5,0,5.5,3.5,5.5,8.2c0,4.9-2.3,6.6-4.6,6.8C400.9,75.3,398.8,72,398.8,67.3z"/>
		</g>
		<g>
			<g>
				<path class="st3" d="M270.9,101.7c-1.8,1.7-3.3,2.2-4.3,2.2c-0.9,0-2.2-0.5-2.1-2.8c0-1.7,0.9-3.7,2.6-4.9
					c0.8-0.5,2-1.1,2.9-1.1c1,0,1.6,0.7,1.5,1.4c0,1.7-3.3,2.8-5.3,3.3c0,0.4-0.1,0.6-0.1,0.7c0,1,0.3,2.3,1.6,2.3
					c0.8,0,1.9-0.4,2.9-1.4L270.9,101.7z M268.2,95.9c-0.5,0.3-1.6,1.2-2,3.5c2.8-0.8,3.7-1.7,3.7-2.6c0-0.7-0.4-1.1-0.9-1.1
					C268.7,95.7,268.5,95.8,268.2,95.9z"/>
				<path class="st3" d="M266.6,104c-0.4,0-1.1-0.1-1.5-0.6c-0.5-0.5-0.7-1.3-0.7-2.3c0-1.9,1.1-3.9,2.6-5c0.8-0.5,2.1-1.1,2.9-1.1
					c0.7,0,1.1,0.3,1.3,0.5c0.3,0.3,0.4,0.6,0.4,1c0,1.8-3.3,2.9-5.3,3.4c0,0.3,0,0.5,0,0.6c0,0.5,0.1,1.4,0.5,1.8
					c0.2,0.2,0.5,0.4,0.9,0.4c0.9,0,1.9-0.5,2.9-1.3l0.1-0.1l0.4,0.4l-0.1,0.1C269.5,103.3,268,104,266.6,104z M269.9,95.2
					c-0.8,0-2,0.5-2.8,1c-1.5,1.1-2.5,2.9-2.5,4.8c0,1,0.2,1.7,0.6,2.2c0.4,0.4,1,0.5,1.4,0.5c1.3,0,2.7-0.7,4.1-2l0,0
					c-1,0.8-2,1.3-2.9,1.3c-0.5,0-0.8-0.1-1.1-0.4c-0.5-0.5-0.6-1.4-0.6-2c0-0.2,0-0.4,0.1-0.7l0-0.1l0.1,0c1.5-0.4,5.2-1.5,5.2-3.2
					c0-0.3-0.1-0.6-0.3-0.8C270.8,95.4,270.4,95.2,269.9,95.2z M266.1,99.6l0-0.2c0.5-2.8,1.9-3.6,2-3.6c0.2-0.1,0.5-0.2,0.9-0.2
					c0.3,0,0.5,0.1,0.7,0.3c0.2,0.2,0.3,0.6,0.3,0.9c0,1.2-1.2,2-3.8,2.8L266.1,99.6z M269,95.9c-0.3,0-0.6,0.1-0.7,0.2
					c-0.5,0.3-1.5,1.2-1.9,3.3c2.3-0.7,3.4-1.5,3.4-2.5c0-0.3-0.1-0.6-0.3-0.7C269.4,95.9,269.2,95.9,269,95.9z"/>
			</g>
			<g>
				<path class="st3" d="M271.9,102.5c0-0.3,0.2-0.5,0.7-0.8c0.2-0.1,0.3-0.1,0.4,0.1c0.6,0.9,1.4,1.2,2,1.2c0.8,0,1.4-0.5,1.4-1.2
					c0-0.5-0.3-0.9-1.2-1.6c-0.8-0.6-1.7-1.4-1.7-2.3c0-0.6,0.2-1.2,1.2-1.9c0.6-0.4,1.5-0.9,2.2-0.9c0.7,0,1.4,0.5,1.5,1
					c0,0.3-0.2,0.6-0.6,0.8c-0.1,0.1-0.2,0.1-0.4-0.1c-0.4-0.4-0.9-0.9-1.6-0.9c-0.6,0-1.1,0.4-1.1,1.1c0,0.7,0.6,1.2,1.4,1.8
					c1.1,0.9,1.6,1.4,1.6,2.2c0,1.4-2.3,2.8-3.8,2.8C272.9,103.9,271.9,103.2,271.9,102.5z"/>
				<path class="st3" d="M273.8,104c-0.9,0-2.1-0.7-2.1-1.4c0-0.3,0.3-0.6,0.7-0.9c0.3-0.1,0.5,0,0.6,0.1c0.6,0.9,1.4,1.2,1.9,1.2
					c0.7,0,1.3-0.4,1.3-1.1c0-0.4-0.2-0.8-1.1-1.5c-0.9-0.7-1.7-1.4-1.7-2.4c0-0.5,0.1-1.2,1.2-2c0.6-0.5,1.6-0.9,2.3-0.9
					c0.8,0,1.6,0.5,1.6,1.1c0,0.4-0.2,0.7-0.6,0.9c-0.2,0.1-0.4,0.1-0.5-0.1c-0.3-0.3-0.8-0.8-1.5-0.8c-0.6,0-1,0.4-1,1
					c0,0.6,0.5,1.1,1.3,1.7c1.1,0.9,1.6,1.4,1.6,2.3C277.7,102.6,275.3,104,273.8,104z M272.7,101.9c0,0-0.1,0-0.1,0
					c-0.4,0.2-0.6,0.4-0.6,0.6c0,0.6,1,1.2,1.8,1.2c1.3,0,3.6-1.3,3.6-2.7c0-0.7-0.4-1.2-1.5-2.1c-0.7-0.5-1.4-1.1-1.4-1.9
					c0-0.7,0.5-1.2,1.2-1.2c0.8,0,1.4,0.6,1.7,0.9c0.1,0.1,0.1,0.1,0.2,0.1c0.3-0.1,0.5-0.4,0.5-0.7c0-0.4-0.6-0.9-1.3-0.9
					c-0.7,0-1.6,0.5-2.2,0.9c-1,0.7-1.1,1.4-1.1,1.8c0,0.9,0.8,1.5,1.6,2.2c0.9,0.7,1.3,1.2,1.2,1.7c0,0.8-0.7,1.3-1.5,1.3
					c-0.6,0-1.4-0.3-2.1-1.3C272.8,101.9,272.8,101.9,272.7,101.9z"/>
			</g>
			<g>
				<path class="st3" d="M284.8,95.9l-2,0l-1.3,5.4c-0.3,1-0.2,1.3,0.1,1.3c0.4,0,1.4-0.6,1.8-0.9l0.2,0.2c-0.7,0.7-2.4,2-3.3,2
					c-0.4,0-0.8-0.5-0.3-2.5l1.4-5.4h-1.5l0-0.1l0.5-0.4h1.2l0.5-1.7l1.7-1.2l0.2,0.1l-0.8,2.9h2.4L284.8,95.9z"/>
				<path class="st3" d="M280.2,104c-0.2,0-0.3-0.1-0.4-0.2c-0.3-0.4-0.3-1.2,0-2.4l1.3-5.3h-1.5l0-0.3l0.6-0.5h1.2l0.5-1.7l1.7-1.3
					l0.3,0.2l-0.8,2.8h2.6l-0.8,0.7l-2,0l-1.3,5.3c-0.2,0.8-0.1,1-0.1,1.1c0,0,0,0,0.1,0c0.3,0,1.4-0.6,1.7-0.9l0.1-0.1l0.3,0.3
					l-0.1,0.1C283.1,102.5,281.3,104,280.2,104z M280,95.9h1.5l-1.4,5.6c-0.4,1.5-0.2,2-0.1,2.2c0.1,0.1,0.1,0.1,0.2,0.1
					c0.9,0,2.4-1.2,3.2-1.9l0,0c-0.4,0.3-1.4,0.9-1.8,0.9c-0.1,0-0.2-0.1-0.3-0.1c-0.1-0.1-0.2-0.4,0.1-1.3l1.3-5.5l2.1,0l0.3-0.2
					h-2.2l0-0.2l0.8-2.8l0,0l-1.6,1.2l-0.5,1.8h-1.3L280,95.9z"/>
			</g>
			<g>
				<path class="st3" d="M293.7,101.8c-1.1,1.3-2.5,2.1-3,2.1c-0.3,0-0.6-0.2-0.3-1.7l0.5-2.1h0c-1,1.3-2,2.2-2.8,2.8
					c-0.7,0.5-1.4,0.9-1.9,0.9c-0.4,0-1-0.6-1-2c0-2,1.1-4,2.5-5.1c1.1-0.9,2.7-1.6,4-1.6c0.4,0,0.7,0,1.2,0.1
					c0.3,0,0.6,0.1,0.8,0.1l0,0.1c-0.4,1.2-1.1,3.8-1.6,6.4c-0.1,0.6-0.1,0.7,0,0.7c0.2,0,1-0.5,1.6-1L293.7,101.8z M291.1,99
					c0.2-0.6,0.6-2.3,0.8-3c-0.3-0.1-0.9-0.3-1.4-0.3c-0.5,0-1,0.1-1.4,0.4c-1.4,1-2.3,3.3-2.3,5.3c0,0.9,0.2,1.3,0.5,1.3
					C288,102.7,290.3,100.5,291.1,99z"/>
				<path class="st3" d="M290.6,104c-0.2,0-0.3-0.1-0.4-0.2c-0.2-0.3-0.2-0.8,0-1.6l0.4-1.6c-0.9,1.1-1.8,1.9-2.5,2.4
					c-0.8,0.6-1.5,1-2,1c-0.2,0-0.4-0.1-0.6-0.3c-0.4-0.4-0.6-1-0.5-1.9c0-2,1.1-4.1,2.5-5.2c1-0.8,2.7-1.6,4.1-1.6
					c0.4,0,0.8,0,1.2,0.1c0.1,0,0.2,0,0.3,0.1c0.2,0,0.3,0.1,0.5,0.1h0.1l0.1,0.2l0,0c-0.4,1.3-1.1,4-1.6,6.4
					c-0.1,0.4-0.1,0.5-0.1,0.6c0.2-0.1,0.9-0.4,1.4-1l0.1-0.1l0.3,0.4l-0.1,0.1C292.7,103.2,291.2,104,290.6,104z M290.8,100h0.3
					l-0.6,2.2c-0.2,1-0.2,1.3-0.1,1.4c0,0.1,0.1,0.1,0.2,0.1c0.4,0,1.8-0.7,2.9-2l0,0c-0.5,0.5-1.3,0.9-1.5,0.9
					c-0.1,0-0.1,0-0.2-0.1c-0.1-0.1-0.1-0.2,0-0.8c0.5-2.4,1.2-5.1,1.6-6.4c-0.1,0-0.2,0-0.4-0.1c-0.1,0-0.2,0-0.3-0.1
					c-0.4-0.1-0.8-0.1-1.2-0.1c-1.3,0-3,0.8-4,1.6c-1.4,1.1-2.4,3.1-2.4,5c0,1,0.3,1.5,0.5,1.7c0.1,0.1,0.3,0.2,0.4,0.2
					c0.4,0,1.1-0.3,1.9-0.9C288.7,102.2,289.8,101.4,290.8,100L290.8,100z M287.3,102.9c-0.1,0-0.2,0-0.3-0.1
					c-0.2-0.2-0.3-0.7-0.3-1.3c0-1.9,0.9-4.3,2.4-5.4c0.4-0.3,1-0.4,1.5-0.4c0.5,0,1.2,0.1,1.5,0.3l0.1,0l0,0.1
					c-0.2,0.7-0.6,2.4-0.8,3C290.5,100.4,288.1,102.9,287.3,102.9z M290.5,95.9c-0.5,0-1,0.1-1.3,0.3c-1.3,0.9-2.2,3.1-2.3,5.2
					c0,0.6,0.1,1,0.2,1.1c0,0,0.1,0.1,0.2,0.1c0.6,0,2.8-2.2,3.7-3.7c0.2-0.5,0.6-2.1,0.8-2.8C291.5,96,291,95.9,290.5,95.9z"/>
			</g>
			<g>
				<path class="st3" d="M296.6,90.4c1.7-0.2,2.8-0.7,3.1-0.7c0.2,0,0.2,0.2,0.1,0.6c-0.8,2.9-1.4,5.2-2.1,8h0
					c1.9-2.2,3.9-3.1,4.7-3.1c0.7,0,1.3,0.7,1.3,2c0,2.1-1.4,4.5-3.3,5.7c-1.3,0.8-2.4,1.1-3.2,1.1c-0.6,0-1.2-0.3-1.5-0.8
					c-0.3-0.4-0.4-1.1-0.1-2.3c0.7-2.8,1.4-5.6,2.3-9.2c0.2-0.9,0.2-1-0.5-1l-0.8,0L296.6,90.4z M299.4,102.9
					c1.1-0.6,2.5-2.8,2.5-5.3c0-1-0.3-1.5-0.6-1.5c-0.8,0-2.5,1.4-3.8,3c-0.1,0.3-0.3,0.9-0.4,1.7c-0.4,2,0.5,2.5,1.2,2.5
					C298.7,103.2,299.1,103.1,299.4,102.9z"/>
				<path class="st3" d="M297.1,104c-0.6,0-1.3-0.3-1.6-0.8c-0.4-0.5-0.4-1.3-0.1-2.4c0.5-2.2,1.1-4.5,1.8-7.1l0.5-2.1
					c0.1-0.4,0.2-0.7,0.1-0.8c-0.1-0.1-0.2-0.1-0.5-0.1l-0.9,0l0-0.4l0.1,0c1.1-0.1,1.9-0.4,2.5-0.5c0.6-0.2,0.8-0.2,0.9-0.1
					c0.1,0.1,0.1,0.3,0,0.6c-0.7,2.6-1.3,4.7-2,7.5c1.9-2.1,3.7-2.8,4.5-2.8c0.3,0,0.6,0.1,0.8,0.4c0.4,0.4,0.6,1,0.5,1.7
					c0,2.2-1.5,4.6-3.4,5.8C298.9,103.8,297.7,104,297.1,104z M297,90.4l0.4,0c0.3,0,0.6,0,0.7,0.2c0.1,0.2,0.1,0.5,0,1l-0.5,2.1
					c-0.7,2.6-1.2,4.9-1.8,7.1c-0.3,1.1-0.2,1.8,0.1,2.2c0.3,0.4,0.9,0.7,1.4,0.7c0.5,0,1.7-0.1,3.1-1.1c1.8-1.1,3.2-3.5,3.3-5.6
					c0-0.7-0.2-1.2-0.5-1.6c-0.2-0.2-0.4-0.3-0.7-0.3c-0.8,0-2.6,0.8-4.6,3.1l0,0h-0.3l0-0.2c0.8-3,1.3-5.2,2.1-8
					c0.1-0.3,0.1-0.4,0.1-0.4l0,0c0,0,0,0,0,0c-0.1,0-0.3,0.1-0.6,0.1C298.6,90.1,297.9,90.3,297,90.4z M298.3,103.3
					c-0.5,0-0.9-0.2-1.1-0.5c-0.4-0.5-0.4-1.2-0.2-2.1c0.2-0.9,0.3-1.4,0.4-1.7l0,0c1.3-1.7,3.1-3,3.9-3c0.1,0,0.3,0.1,0.4,0.2
					c0.2,0.2,0.4,0.7,0.4,1.4c0,2.5-1.4,4.8-2.6,5.4C299.1,103.2,298.7,103.3,298.3,103.3z M297.6,99.1c-0.1,0.3-0.3,0.9-0.4,1.7
					c-0.2,0.9-0.1,1.5,0.2,1.9c0.3,0.3,0.7,0.4,0.9,0.4c0.3,0,0.7-0.1,1-0.3c1.1-0.7,2.4-2.9,2.5-5.2c0-0.8-0.2-1.1-0.3-1.3
					c-0.1-0.1-0.1-0.1-0.2-0.1C300.6,96.2,298.9,97.5,297.6,99.1z"/>
			</g>
			<g>
				<path class="st3" d="M308.5,101.8c-1.2,1.1-2.6,2-3.2,2c-0.4,0-0.6-0.4-0.2-2.2c0.8-3.3,1.6-6.6,2.4-9.9c0.3-1,0.1-1.1-0.8-1.1
					l-0.6,0l0-0.2c1.7-0.2,2.9-0.7,3.1-0.7c0.2,0,0.2,0.2,0.1,0.5c-0.9,3.9-1.9,7.8-2.9,11.8c-0.1,0.5-0.1,0.6,0.1,0.6
					c0.2,0,1.1-0.4,1.7-0.9L308.5,101.8z"/>
				<path class="st3" d="M305.3,104c-0.2,0-0.3-0.1-0.4-0.2c-0.2-0.3-0.2-1,0-2.2c0.7-2.6,1.3-5.2,1.9-7.8l0.5-2.1
					c0.1-0.4,0.2-0.7,0.1-0.8c-0.1-0.1-0.3-0.1-0.7-0.2l-0.8,0l0.1-0.5l0.1,0c1.1-0.1,2-0.4,2.5-0.6c0.3-0.1,0.5-0.2,0.6-0.2
					c0.1,0,0.2,0.1,0.2,0.1c0.1,0.1,0.1,0.3,0,0.6c-0.6,2.4-1.2,4.8-1.8,7.2c-0.4,1.5-0.8,3-1.1,4.6c-0.1,0.4,0,0.5,0,0.5
					c0.2,0,0.9-0.4,1.6-0.9l0.1-0.1l0.4,0.3l-0.1,0.1C307.4,103,305.9,104,305.3,104z M306.3,90.5l0.5,0c0.5,0,0.8,0.1,0.9,0.3
					c0.2,0.2,0.1,0.5,0,1l-0.5,2.1c-0.6,2.6-1.3,5.2-1.9,7.8c-0.3,1.3-0.2,1.8-0.1,2c0,0.1,0.1,0.1,0.2,0.1c0.5,0,1.9-0.8,3-1.9l0,0
					c-0.6,0.5-1.4,0.9-1.7,0.9c-0.1,0-0.2,0-0.2-0.1c-0.1-0.1-0.1-0.3,0-0.7c0.4-1.5,0.8-3.1,1.1-4.6c0.6-2.4,1.2-4.8,1.8-7.2
					c0.1-0.3,0-0.4,0-0.4c0,0,0,0,0,0c-0.1,0-0.3,0.1-0.6,0.1C308.2,90.1,307.3,90.4,306.3,90.5z"/>
			</g>
			<g>
				<path class="st3" d="M313.3,102c-0.8,0.8-2.4,1.9-3,1.9c-0.4,0-0.6-0.3-0.2-1.8l1.4-5c0.1-0.5,0.1-0.7,0-0.7
					c-0.2,0-0.8,0.3-1.4,0.7l-0.1-0.2c1-0.9,2.6-1.8,3.1-1.8c0.4,0,0.4,0.5,0.1,1.5l-1.5,5.4c-0.1,0.5-0.1,0.6,0.1,0.6
					c0.2,0,0.9-0.4,1.4-0.8L313.3,102z M314.1,92.2c0,0.5-0.5,1-1,1c-0.4,0-0.7-0.3-0.7-0.7c0-0.5,0.3-1,1-1
					C313.8,91.5,314.1,91.8,314.1,92.2z"/>
				<path class="st3" d="M310.3,104c-0.2,0-0.3-0.1-0.4-0.2c-0.2-0.3-0.2-0.8,0.1-1.7l1.4-5c0.1-0.3,0.1-0.4,0.1-0.5
					c-0.2,0-0.7,0.3-1.3,0.7l-0.1,0.1l-0.2-0.4l0.1-0.1c1-0.9,2.6-1.8,3.2-1.8c0.2,0,0.3,0.1,0.3,0.1c0.2,0.2,0.1,0.7-0.1,1.5
					l-1.5,5.4c-0.1,0.4-0.1,0.4-0.1,0.5c0.1,0,0.8-0.3,1.3-0.8l0.1-0.1l0.3,0.4l-0.1,0.1C312.7,102.9,311,104,310.3,104z
					 M311.5,96.3c0.1,0,0.1,0,0.2,0.1c0.1,0.1,0.1,0.3-0.1,0.7l-1.4,5c-0.3,1-0.2,1.4-0.1,1.5c0,0,0.1,0.1,0.2,0.1
					c0.5,0,2-1,2.8-1.8l0,0c-0.5,0.4-1.2,0.8-1.4,0.8c-0.1,0-0.2,0-0.2-0.1c-0.1-0.1-0.1-0.3,0-0.7l1.5-5.4c0.2-0.7,0.3-1.1,0.1-1.3
					c0,0,0,0-0.1,0c-0.4,0-1.9,0.8-2.9,1.7l0,0C310.6,96.7,311.3,96.3,311.5,96.3z M313.1,93.4c-0.5,0-0.8-0.3-0.8-0.8
					c0-0.6,0.4-1.2,1.1-1.2c0.2,0,0.4,0.1,0.6,0.2c0.2,0.2,0.2,0.4,0.2,0.6c0,0.3-0.1,0.6-0.3,0.8C313.6,93.2,313.3,93.4,313.1,93.4
					z M313.4,91.6c-0.6,0-0.9,0.5-0.9,0.9c0,0.2,0.1,0.6,0.6,0.6c0.2,0,0.5-0.1,0.6-0.3c0.2-0.2,0.3-0.4,0.3-0.6
					c0-0.2-0.1-0.4-0.2-0.5C313.7,91.6,313.5,91.6,313.4,91.6z"/>
			</g>
			<g>
				<path class="st3" d="M314.5,102.5c0-0.3,0.2-0.5,0.7-0.8c0.2-0.1,0.3-0.1,0.4,0.1c0.6,0.9,1.4,1.2,2,1.2c0.8,0,1.4-0.5,1.4-1.2
					c0-0.5-0.3-0.9-1.2-1.6c-0.8-0.6-1.7-1.4-1.7-2.3c0-0.6,0.2-1.2,1.1-1.9c0.6-0.4,1.5-0.9,2.3-0.9c0.7,0,1.4,0.5,1.5,1
					c0,0.3-0.2,0.6-0.5,0.8c-0.1,0.1-0.2,0.1-0.4-0.1c-0.4-0.4-0.9-0.9-1.6-0.9c-0.6,0-1.1,0.4-1.1,1.1c0,0.7,0.6,1.2,1.4,1.8
					c1.1,0.9,1.6,1.4,1.5,2.2c0,1.4-2.3,2.8-3.8,2.8C315.5,103.9,314.5,103.2,314.5,102.5z"/>
				<path class="st3" d="M316.4,104c-0.9,0-2.1-0.7-2.1-1.4c0-0.3,0.3-0.6,0.7-0.9c0.3-0.1,0.5,0,0.6,0.1c0.6,0.9,1.4,1.2,1.9,1.2
					c0.7,0,1.3-0.4,1.3-1.1c0-0.4-0.2-0.8-1.1-1.5c-0.9-0.7-1.7-1.4-1.7-2.4c0-0.5,0.2-1.2,1.2-2c0.6-0.5,1.6-0.9,2.3-0.9
					c0.8,0,1.6,0.5,1.6,1.1c0,0.4-0.2,0.7-0.6,0.9c-0.2,0.1-0.4,0.1-0.5-0.1c-0.3-0.3-0.8-0.8-1.5-0.8c-0.6,0-1,0.4-1,1
					c0,0.6,0.5,1.1,1.3,1.7c1.1,0.9,1.6,1.4,1.6,2.3C320.3,102.6,317.9,104,316.4,104z M315.3,101.9c0,0-0.1,0-0.1,0
					c-0.4,0.2-0.6,0.4-0.6,0.6c0,0.6,1,1.2,1.8,1.2c1.3,0,3.6-1.3,3.6-2.7c0-0.7-0.4-1.2-1.5-2.1c-0.7-0.5-1.4-1.1-1.4-1.9
					c0-0.7,0.5-1.2,1.2-1.2c0.8,0,1.4,0.6,1.7,0.9c0.1,0.1,0.1,0.1,0.2,0.1c0.3-0.1,0.5-0.4,0.5-0.7c0-0.4-0.6-0.9-1.3-0.9
					c-0.7,0-1.6,0.5-2.2,0.9c-1,0.7-1.1,1.4-1.1,1.8c0,0.9,0.8,1.5,1.6,2.2c0.9,0.7,1.3,1.2,1.2,1.7c0,0.8-0.7,1.3-1.5,1.3
					c-0.6,0-1.4-0.3-2.1-1.3C315.4,101.9,315.4,101.9,315.3,101.9z"/>
			</g>
			<g>
				<path class="st3" d="M330.5,102c-1.1,1.1-2.4,1.8-2.9,1.8c-0.5,0-0.6-0.4-0.2-1.9l1.2-4.5c0.3-1,0.1-1.3-0.1-1.3
					c-0.8,0-3.2,2.1-4.4,3.8c-0.2,0.9-0.6,2.6-0.9,3.5c-0.5,0.1-1.1,0.2-1.6,0.4l-0.1-0.1c1-3.8,2-7.9,3-11.9
					c0.3-1.1,0.2-1.2-0.7-1.2l-0.6,0l0.1-0.2c1.8-0.2,2.8-0.7,3.1-0.7c0.1,0,0.2,0.1,0.1,0.5l-2.3,8.7h0c1.7-2,3.2-2.9,4-3.4
					c0.6-0.3,1-0.5,1.4-0.5c0.5,0,0.9,0.4,0.4,2.6l-1.1,4.3c-0.1,0.4-0.1,0.6,0.1,0.6c0.2,0,0.9-0.4,1.4-0.8L330.5,102z"/>
				<path class="st3" d="M321.6,104l-0.2-0.2l0-0.1c1-3.6,2-7.7,3-11.8c0.1-0.5,0.2-0.8,0.1-1c-0.1-0.1-0.3-0.1-0.7-0.1l-0.7,0
					l0.2-0.5l0.1,0c1.2-0.1,2.1-0.4,2.6-0.6c0.3-0.1,0.4-0.1,0.5-0.1s0.2,0,0.2,0.1c0.1,0.1,0.1,0.3,0,0.6l-2.1,8.3
					c1.2-1.3,2.4-2.3,3.7-3.1c0.6-0.3,1.1-0.5,1.5-0.5c0.2,0,0.4,0.1,0.6,0.3c0.3,0.4,0.3,1.2-0.1,2.5l-1.1,4.3
					c-0.1,0.4-0.1,0.4-0.1,0.4c0.2,0,0.8-0.3,1.4-0.8l0.1-0.1l0.2,0.4l-0.1,0.1c-1.1,1.1-2.4,1.9-3,1.9c-0.2,0-0.3-0.1-0.4-0.2
					c-0.2-0.3-0.2-0.9,0.1-1.9l1.2-4.5c0.2-0.8,0.1-1,0.1-1.1c0,0,0,0-0.1,0c-0.7,0-3,1.9-4.2,3.8c-0.2,0.9-0.6,2.6-0.8,3.5l0,0.1
					l-0.1,0C322.7,103.7,322.2,103.8,321.6,104L321.6,104z M328.4,96c0.1,0,0.2,0,0.3,0.1c0.2,0.2,0.1,0.6,0,1.3l-1.2,4.5
					c-0.2,0.9-0.3,1.5-0.1,1.7c0,0,0.1,0.1,0.2,0.1c0.4,0,1.6-0.6,2.7-1.7c-0.5,0.4-1.1,0.7-1.4,0.7c-0.1,0-0.2-0.1-0.2-0.1
					c-0.1-0.1-0.1-0.3,0-0.6l1.1-4.3c0.4-1.5,0.3-2.1,0.1-2.3c-0.1-0.1-0.2-0.2-0.4-0.2c-0.3,0-0.8,0.2-1.3,0.4
					c-1.4,0.8-2.7,1.9-3.9,3.3l0,0h-0.3l0-0.2l2.3-8.7c0.1-0.3,0-0.4,0-0.4c-0.1,0-0.3,0.1-0.5,0.1c-0.5,0.2-1.3,0.4-2.4,0.6l0.2,0
					c0.4,0,0.8,0,0.9,0.2c0.2,0.2,0.1,0.5,0,1.2c-1,4.1-2,8.2-2.9,11.8l0,0c0.5-0.1,0.9-0.2,1.4-0.3c0.2-0.9,0.6-2.6,0.8-3.5l0,0
					C325.1,98.2,327.5,96,328.4,96z"/>
			</g>
			<g>
				<path class="st3" d="M338.5,101.7c-1.8,1.7-3.3,2.2-4.3,2.2c-0.9,0-2.2-0.5-2.1-2.8c0-1.7,0.9-3.7,2.6-4.9
					c0.8-0.5,2-1.1,2.9-1.1c1,0,1.6,0.7,1.5,1.4c0,1.7-3.3,2.8-5.3,3.3c-0.1,0.4-0.1,0.6-0.1,0.7c0,1,0.3,2.3,1.6,2.3
					c0.8,0,1.9-0.4,2.9-1.4L338.5,101.7z M335.8,95.9c-0.5,0.3-1.6,1.2-2,3.5c2.8-0.8,3.7-1.7,3.7-2.6c0-0.7-0.4-1.1-0.9-1.1
					C336.3,95.7,336.1,95.8,335.8,95.9z"/>
				<path class="st3" d="M334.2,104c-0.4,0-1.1-0.1-1.6-0.6c-0.5-0.5-0.7-1.3-0.7-2.3c0-1.9,1.1-3.9,2.6-5c0.8-0.5,2.1-1.1,2.9-1.1
					c0.7,0,1.1,0.3,1.3,0.5c0.3,0.3,0.4,0.6,0.4,1c0,1.8-3.3,2.9-5.3,3.4c0,0.3,0,0.4,0,0.6l0,0.1c0,0.5,0.1,1.3,0.5,1.8
					c0.2,0.2,0.6,0.4,0.9,0.4c0.9,0,1.9-0.5,2.9-1.3l0.1-0.1l0.4,0.4l-0.1,0.1C337.1,103.3,335.6,104,334.2,104z M337.5,95.2
					c-0.8,0-2,0.5-2.8,1c-1.5,1.1-2.5,2.9-2.5,4.8c0,1,0.2,1.7,0.6,2.2c0.4,0.4,1,0.5,1.4,0.5c1.3,0,2.7-0.7,4.1-2l0,0
					c-1,0.8-2,1.3-2.9,1.3c-0.5,0-0.8-0.1-1.1-0.4c-0.5-0.5-0.6-1.4-0.6-2l0-0.1c0-0.1,0-0.4,0.1-0.7l0-0.1l0.1,0
					c1.5-0.4,5.2-1.5,5.2-3.2c0-0.3-0.1-0.6-0.3-0.8C338.4,95.4,338,95.2,337.5,95.2z M333.7,99.6l0-0.2c0.5-2.8,1.9-3.6,2-3.6
					c0.2-0.1,0.5-0.2,0.9-0.2c0.3,0,0.5,0.1,0.7,0.3c0.2,0.2,0.3,0.6,0.3,0.9c0,1.2-1.2,2-3.8,2.8L333.7,99.6z M336.6,95.9
					c-0.3,0-0.6,0.1-0.7,0.2c-0.5,0.3-1.5,1.2-1.9,3.3c2.3-0.7,3.4-1.5,3.4-2.5c0-0.3-0.1-0.6-0.3-0.7
					C337,95.9,336.8,95.9,336.6,95.9z"/>
			</g>
			<g>
				<path class="st3" d="M348.7,101.9c-1,1.1-2.5,2-3,2c-0.3,0-0.6-0.2-0.3-1.6l0.5-2h0c-1,1.2-2.1,2.1-2.9,2.7
					c-0.8,0.6-1.4,0.9-1.8,0.9c-0.6,0-1.3-0.7-1.2-2.2c0-1.8,1-3.9,2.5-5c1-0.7,2.7-1.5,3.6-1.5c0.3,0,0.7,0,1.1,0.2l0.8-3.5
					c0.2-1.1,0.1-1.2-0.8-1.2h-0.6l0-0.2c1.8-0.2,2.9-0.7,3.3-0.7c0.2,0,0.2,0.2,0.1,0.6c-1.1,4-2,7.9-2.9,11.6
					c-0.1,0.4-0.1,0.6,0.1,0.6c0.2,0,0.8-0.4,1.5-0.9L348.7,101.9z M346.1,99.2l0.7-2.9c-0.3-0.3-1-0.5-1.6-0.5
					c-0.5,0-1,0.1-1.3,0.4c-1.5,1-2.3,3.5-2.4,5.1c0,1,0.2,1.5,0.6,1.5C343.1,102.7,345.3,100.5,346.1,99.2z"/>
				<path class="st3" d="M345.6,104c-0.2,0-0.3-0.1-0.4-0.2c-0.2-0.2-0.2-0.7,0-1.6l0.4-1.6c-1,1.1-1.9,1.9-2.6,2.4
					c-0.8,0.6-1.4,0.9-1.9,0.9c-0.3,0-0.5-0.1-0.8-0.3c-0.3-0.3-0.6-0.9-0.6-2c0-1.9,1.1-4,2.6-5.1c0.9-0.7,2.7-1.5,3.7-1.5
					c0.3,0,0.6,0,1,0.1l0.8-3.3c0.1-0.5,0.1-0.8,0-0.9c-0.1-0.1-0.3-0.1-0.7-0.1h-0.7l0.1-0.5l0.1,0c1.2-0.1,2-0.4,2.6-0.6
					c0.6-0.2,0.8-0.2,0.9-0.1c0.1,0.1,0.1,0.3,0,0.7c-1.1,4.2-2.1,8-2.9,11.6c-0.1,0.4,0,0.5,0,0.5c0.2,0,0.8-0.3,1.4-0.9l0.1-0.1
					l0.3,0.4l-0.1,0.1C347.8,103.1,346.3,104,345.6,104z M345.8,100.1h0.3l-0.5,2.2c-0.2,0.9-0.2,1.3-0.1,1.4c0,0.1,0.1,0.1,0.2,0.1
					c0.5,0,1.9-0.8,2.9-1.9l0,0c-0.5,0.4-1.2,0.8-1.4,0.8c-0.1,0-0.2,0-0.2-0.1c-0.1-0.1-0.1-0.3,0-0.7c0.8-3.6,1.7-7.4,2.9-11.6
					c0.1-0.3,0.1-0.4,0.1-0.5c-0.1,0-0.3,0.1-0.6,0.2c-0.6,0.2-1.4,0.4-2.5,0.5h0.4c0.5,0,0.8,0,0.9,0.2c0.2,0.2,0.1,0.5,0,1.1
					l-0.9,3.6l-0.1,0c-0.4-0.2-0.8-0.2-1.1-0.2c-0.8,0-2.5,0.7-3.5,1.4c-1.4,1.1-2.4,3.1-2.5,4.9c0,0.8,0.2,1.5,0.5,1.9
					c0.2,0.2,0.4,0.3,0.6,0.3c0.4,0,1-0.3,1.8-0.8C343.7,102.3,344.7,101.4,345.8,100.1L345.8,100.1z M342.2,102.9
					c-0.1,0-0.3-0.1-0.4-0.2c-0.2-0.3-0.4-0.8-0.4-1.4c0-1.8,1-4.3,2.4-5.3c0.3-0.2,0.8-0.4,1.4-0.4c0.6,0,1.4,0.2,1.7,0.5l0.1,0.1
					l-0.8,3C345.4,100.5,343.2,102.9,342.2,102.9z M345.3,95.9c-0.5,0-0.9,0.1-1.2,0.3c-1.4,0.9-2.3,3.3-2.3,5
					c0,0.6,0.1,1.1,0.3,1.3c0.1,0.1,0.1,0.1,0.2,0.1c0.8,0,2.9-2.2,3.8-3.5l0.7-2.8C346.4,96,345.8,95.9,345.3,95.9z"/>
			</g>
			<g>
				<path class="st3" d="M359.1,101.4c-0.4,1.7-0.3,1.9,1.8,2l-0.1,0.2h-5.9l0.1-0.2c2-0.2,2.1-0.3,2.5-2l1.7-7.5
					c0.2-1.1,0.1-1.3-1.2-1.3h-0.7l0-0.2c1.4-0.2,2.8-0.5,4-1L359.1,101.4z"/>
				<path class="st3" d="M360.9,103.8h-6.2l0.1-0.5l0.1,0c1.9-0.2,2-0.2,2.4-1.9l1.7-7.5c0.1-0.5,0.1-0.8,0-0.9
					c-0.1-0.2-0.5-0.2-1.1-0.2h-0.8l0.1-0.5l0.1,0c1.5-0.2,2.8-0.5,4-1l0.2-0.1l0,0.2l-2.1,10c-0.2,0.9-0.2,1.3-0.1,1.5
					c0.2,0.3,0.8,0.3,1.7,0.4l0.1,0L360.9,103.8z M355.1,103.5h5.6c-1-0.1-1.5-0.2-1.7-0.5c-0.2-0.3-0.2-0.8,0-1.7l2.1-9.8
					c-1.1,0.4-2.3,0.7-3.6,0.9h0.4c0.1,0,0.2,0,0.3,0c0.6,0,0.9,0.1,1,0.3c0.2,0.2,0.2,0.6,0,1.1l-1.7,7.5
					C357.2,103.2,357,103.3,355.1,103.5z"/>
			</g>
			<g>
				<path class="st3" d="M380.1,93.4c0,0-1.5-0.2-2.4-0.2c-1,0-2.5,0.2-2.5,0.2l-1.1,3.9c3.4-3.4,6.6-1.8,6.6,0.8
					c0.1,4.1-4,7.8-7,8.2c-0.8,0.1-1.6,0-2.2-0.3c-0.3-0.2-0.5-0.5-0.5-0.7c0-0.3,0.1-0.3,0.4-0.5c0.1-0.1,0.3-0.1,0.3,0.1
					c0.3,0.6,1.1,1.3,2.4,1c3.1-0.8,4.8-4.3,4.8-7c0-1.7-1.4-2.8-3.4-2c-0.8,0.3-1.6,1.1-2,1.4l-0.2-0.2l1.6-6c0,0,0.9,0.1,3.1-0.1
					c1-0.1,2.9-0.2,2.9-0.2L380.1,93.4z"/>
				<path class="st3" d="M373,106.4c-0.6,0-1.2-0.1-1.6-0.4c-0.3-0.2-0.6-0.6-0.6-0.8c0-0.3,0.2-0.4,0.5-0.6c0.2-0.1,0.4,0,0.5,0.2
					c0.1,0.2,0.5,1,1.6,1c0.2,0,0.4,0,0.7-0.1c2.9-0.7,4.7-4.1,4.7-6.9c0-1.3-0.8-2.1-2-2.1c-0.4,0-0.8,0.1-1.2,0.3
					c-0.6,0.2-1.1,0.7-1.5,1c-0.2,0.1-0.3,0.3-0.4,0.3l-0.1,0.1l-0.4-0.3l0-0.1l1.7-6.1l0.1,0c0,0,0.2,0,0.7,0c0.4,0,1.2,0,2.3-0.1
					c1-0.1,2.9-0.2,2.9-0.2l0.2,0l-0.9,2l-0.1,0c0,0-1.5-0.2-2.4-0.2c-0.8,0-2.1,0.1-2.4,0.2l-1,3.3c1.5-1.4,2.7-1.7,3.6-1.7
					c1.7,0,2.9,1.2,2.9,2.9c0.1,4-3.9,7.9-7.1,8.3C373.4,106.4,373.2,106.4,373,106.4z M371.5,104.8
					C371.5,104.8,371.4,104.8,371.5,104.8c-0.4,0.2-0.4,0.2-0.4,0.4c0,0.2,0.2,0.4,0.5,0.6c0.5,0.3,1.2,0.4,2.1,0.3
					c2.8-0.4,7-3.9,6.9-8.1c0-1.5-1.2-2.7-2.7-2.7c-0.8,0-2.2,0.3-3.7,1.9l-0.3,0.4l1.3-4.4l0.1,0c0,0,1.6-0.2,2.5-0.2
					c0.8,0,2,0.1,2.4,0.2l0.7-1.4c-0.5,0-1.9,0.1-2.7,0.2c-1.1,0.1-1.9,0.1-2.3,0.1c-0.3,0-0.5,0-0.6,0l-1.6,5.9l0.1,0.1
					c0.1-0.1,0.2-0.2,0.3-0.3c0.4-0.3,1-0.8,1.6-1.1c0.4-0.2,0.9-0.3,1.3-0.3c1.3,0,2.2,1,2.3,2.4c0,2.9-1.8,6.4-4.9,7.1
					c-0.3,0.1-0.5,0.1-0.7,0.1C372.2,106,371.7,105.2,371.5,104.8C371.6,104.8,371.5,104.8,371.5,104.8z"/>
			</g>
			<g>
				<path class="st3" d="M385.2,101.4c-0.4,1.7-0.3,1.9,1.8,2l-0.1,0.2h-5.9l0.1-0.2c2-0.2,2.1-0.3,2.5-2l1.7-7.5
					c0.2-1.1,0.1-1.3-1.2-1.3h-0.7l0-0.2c1.4-0.2,2.8-0.5,4-1L385.2,101.4z"/>
				<path class="st3" d="M387,103.8h-6.2l0.1-0.5l0.1,0c1.9-0.2,2-0.2,2.4-1.9l1.7-7.5c0.1-0.5,0.1-0.8,0-0.9
					c-0.1-0.2-0.5-0.2-1.1-0.2h-0.8l0.1-0.5l0.1,0c1.5-0.2,2.9-0.6,4-1l0.2-0.1l0,0.2l-2.1,10c-0.2,0.8-0.2,1.2-0.1,1.5
					c0.2,0.3,0.8,0.3,1.7,0.4l0.1,0L387,103.8z M381.2,103.5h5.6c-1-0.1-1.5-0.2-1.7-0.5c-0.2-0.3-0.2-0.8,0-1.7l2.1-9.8
					c-1.1,0.4-2.3,0.7-3.6,0.9h0.4c0.1,0,0.2,0,0.3,0c0.6,0,0.9,0.1,1,0.3c0.2,0.2,0.2,0.6,0,1.1l-1.7,7.5
					C383.2,103.1,383,103.3,381.2,103.5z"/>
			</g>
			<g>
				<path class="st3" d="M372.1,93.8c0.1-1.7-1.5-2.4-3.1-2.4c-2.3,0-4.3,1.6-4.3,3.3c0,1.3,1,2.1,2,2.8c-0.9,0.3-1.8,0.9-2.3,1.2
					c-0.8,0.6-1.4,1.5-1.4,2.3c0,1.9,1.8,2.9,3.8,2.9c2.6,0,4.8-1.7,4.8-3.6c0-1.4-1.1-2.3-2.6-3.3c0,0-0.3-0.2-0.3-0.2
					c-0.9-0.5-2.3-1.3-2.3-2.8c0-1.2,0.9-2.2,2.2-2.2c1.2,0,2.1,1,2,2.1c-0.1,0.9-0.3,1.7-1.7,2.6l0.4,0.1
					C371,95.9,372,94.9,372.1,93.8z M369.7,100.8c0,1.6-1.1,2.7-2.7,2.7c-1.5,0-2.3-1.1-2.3-2.5c0-1.5,0.9-2.5,2.5-3.3
					C368.6,98.8,369.7,99.5,369.7,100.8z"/>
				<path class="st3" d="M366.7,104.1c-1.9,0-3.9-1-3.9-3c0-0.9,0.8-1.9,1.5-2.4c0.5-0.3,1.3-0.8,2.2-1.2c-1-0.7-1.8-1.5-1.8-2.8
					c0-1.8,2.1-3.5,4.4-3.5c1.1,0,2.1,0.4,2.6,1c0.4,0.4,0.6,1,0.5,1.6c-0.1,1.1-1.1,2.1-2.8,2.9l0,0l-0.7-0.2l0.2-0.1
					c1.4-0.9,1.5-1.8,1.6-2.5c0-0.5-0.1-0.9-0.5-1.3c-0.4-0.4-0.9-0.6-1.4-0.6c-1.2,0-2.1,0.9-2.1,2.1c0,1.4,1.3,2.2,2.1,2.7
					l0.1,0.1l0,0c0.1,0,0.2,0.2,0.3,0.2l0,0c1.4,0.9,2.6,1.9,2.6,3.4C371.6,102.3,369.3,104.1,366.7,104.1z M369,91.5
					c-2.2,0-4.2,1.5-4.2,3.2c0,1.2,0.9,2,1.9,2.7l0.2,0.1l-0.2,0.1c-0.9,0.4-1.8,0.9-2.3,1.2c-0.8,0.6-1.4,1.5-1.4,2.2
					c0,1.9,1.9,2.8,3.7,2.8c2.5,0,4.7-1.6,4.7-3.5c0-1.3-1.1-2.2-2.5-3.2l-0.1,0c-0.1,0-0.2-0.1-0.2-0.2l-0.1-0.1
					c-0.9-0.5-2.2-1.3-2.2-2.9c0-1.3,1-2.3,2.3-2.3c0.6,0,1.2,0.3,1.6,0.7c0.4,0.4,0.6,1,0.6,1.5c-0.1,0.9-0.4,1.7-1.5,2.5l0.1,0
					c1.7-0.7,2.6-1.6,2.6-2.7c0-0.6-0.1-1-0.5-1.4C371,91.8,370.1,91.5,369,91.5z M367,103.7c-1.5,0-2.5-1.1-2.5-2.6
					c0-1.5,0.8-2.6,2.5-3.4l0.1,0l0.1,0c1.5,1,2.6,1.7,2.6,3.2C369.8,102.5,368.6,103.7,367,103.7z M367.1,97.9
					c-1.6,0.8-2.3,1.8-2.3,3.1c0,1.5,0.9,2.4,2.2,2.4c1.5,0,2.5-1.1,2.5-2.6C369.5,99.6,368.6,98.9,367.1,97.9z"/>
			</g>
		</g>
		<path class="st3" d="M175.7,90.8c-1.3-0.6-2.9,0-3.4,1.3c-5.7,12.2-15.6,22.2-27.9,28.1c-6.1,2.9-12.6,4.8-19.4,5.5
			c-6.7,0.7-13.6,0.3-20.2-1.2c-2.8-0.6-5.6-1.5-8.2-2.5c6.1-3.2,11.6-7.3,16.3-12.2c5-5.2,8.9-11.1,11.8-17.6
			c0.1-0.3,0-0.7-0.3-0.8c-0.3-0.1-0.7,0-0.8,0.3c-2.9,6.3-6.8,12.1-11.8,17.1c-4.9,5-10.5,9-16.8,12.1c-0.2,0.1-0.4,0.2-0.6,0.3
			c-9.2-3.9-17.3-10.1-23.5-18c-4.3-5.4-7.5-11.4-9.6-17.9c-2.2-6.5-3.1-13.3-2.9-20.1c0.2-6.9,1.6-13.6,4.2-20
			c2.6-6.4,6.2-12.2,10.9-17.3c5.2-5.8,11.4-10.4,18.3-13.8c1.7,0.7,3.3,1.5,4.8,2.4c5.9,3.3,11.2,7.6,15.7,12.7
			c4.5,5.1,8,10.9,10.5,17.2c0.4,1,1.3,1.6,2.4,1.6c0.3,0,0.7-0.1,1-0.2c0.6-0.3,1.1-0.8,1.4-1.4c0.3-0.6,0.3-1.3,0-2
			c-2.8-6.8-6.6-13-11.6-18.5c-4.9-5.5-10.7-10-17.1-13.5c-0.5-0.3-1-0.5-1.5-0.8c3.8-1.4,7.7-2.4,11.7-3c3.2-0.5,6.4-0.8,9.6-0.8
			c10.7,0,21.3,2.7,30.4,7.9c12.2,6.9,21.7,17.8,26.7,30.8c0.1,0.3,0.5,0.5,0.8,0.3c0.3-0.1,0.5-0.5,0.3-0.8
			c-5-13.3-14.6-24.6-27-31.8c-9.6-5.6-20.6-8.5-32-8.5c-3.1,0-6.2,0.2-9.2,0.7c-4.9,0.7-9.7,2-14.2,3.8c-5.2-2.3-10.6-4-16.2-4.9
			c-7.2-1.1-14.6-1.1-21.7,0.2C42.2,8,29,15.4,19.4,26.4c-4.8,5.5-8.6,11.7-11.2,18.5c-2.6,6.8-4,13.9-4.1,21.1
			c-0.1,7.3,1,14.4,3.4,21.2c2.4,6.8,5.9,13.1,10.5,18.7c9.1,11.2,21.9,19,36,21.9c4.3,0.9,8.7,1.3,13.1,1.3
			c8.4,0,16.7-1.7,24.4-4.8c3.9,1.8,8,3.3,12.2,4.3c5,1.2,10.2,1.8,15.3,1.8c2.1,0,4.2-0.1,6.3-0.3c7.3-0.7,14.3-2.6,21-5.7
			c6.7-3.1,12.7-7.3,17.9-12.4c5.2-5.1,9.6-11.2,12.7-17.8C177.5,92.9,176.9,91.4,175.7,90.8z M10.4,86.3c-2.2-6.5-3.2-13.3-3-20.2
			c0.2-6.9,1.6-13.6,4.1-20C14,39.8,17.6,34,22.2,28.8c9.1-10.2,21.5-17.1,35.1-19.2c3.2-0.5,6.5-0.8,9.8-0.8c7.5,0,14.8,1.4,21.7,4
			c-6.5,3.3-12.3,7.8-17.3,13.2c-4.9,5.3-8.8,11.4-11.6,18c-2.8,6.6-4.4,13.7-4.7,21c-0.3,7.3,0.6,14.4,2.8,21.3
			c2.2,6.9,5.5,13.3,10,19.1c5.7,7.5,13.1,13.6,21.4,17.9c-6.8,2.5-14.1,3.8-21.5,3.8c-4.5,0-9-0.5-13.4-1.5
			c-13.6-3-25.8-10.6-34.4-21.4C15.8,98.8,12.5,92.8,10.4,86.3z"/>
		<g>
			<path class="st3" d="M174.5,93.2"/>
		</g>
	</g>
</g>
</svg>
